<svg width="26" height="26" viewBox="0 0 26 26" fill="none" xmlns="http://www.w3.org/2000/svg">
<path d="M13 0.40625C6.04297 0.40625 0.40625 6.04297 0.40625 13C0.40625 19.957 6.04297 25.5938 13 25.5938C19.957 25.5938 25.5938 19.957 25.5938 13C25.5938 6.04297 19.957 0.40625 13 0.40625ZM19.5 21.8156C17.677 23.1613 15.4324 23.9688 13 23.9688C10.5676 23.9688 8.32305 23.1613 6.5 21.8156V21.125C6.5 19.3324 7.95742 17.875 9.75 17.875C10.3137 17.875 11.1465 18.4539 13 18.4539C14.8586 18.4539 15.6812 17.875 16.25 17.875C18.0426 17.875 19.5 19.3324 19.5 21.125V21.8156ZM21.0539 20.4191C20.7086 18.0629 18.7027 16.25 16.25 16.25C15.209 16.25 14.7063 16.8289 13 16.8289C11.2937 16.8289 10.7961 16.25 9.75 16.25C7.29727 16.25 5.29141 18.0629 4.94609 20.4191C3.14336 18.4641 2.03125 15.8641 2.03125 13C2.03125 6.95195 6.95195 2.03125 13 2.03125C19.048 2.03125 23.9688 6.95195 23.9688 13C23.9688 15.8641 22.8566 18.4641 21.0539 20.4191ZM13 6.09375C10.532 6.09375 8.53125 8.09453 8.53125 10.5625C8.53125 13.0305 10.532 15.0312 13 15.0312C15.468 15.0312 17.4688 13.0305 17.4688 10.5625C17.4688 8.09453 15.468 6.09375 13 6.09375ZM13 13.4062C11.4309 13.4062 10.1562 12.1316 10.1562 10.5625C10.1562 8.99336 11.4309 7.71875 13 7.71875C14.5691 7.71875 15.8438 8.99336 15.8438 10.5625C15.8438 12.1316 14.5691 13.4062 13 13.4062Z" fill="#9C9A96"/>
</svg>
