<svg width="24" height="26" viewBox="0 0 24 26" fill="none" xmlns="http://www.w3.org/2000/svg">
<path d="M12 6.90625C11.3269 6.90625 10.7812 6.3606 10.7812 5.6875C10.7812 5.01439 11.3269 4.46875 12 4.46875C12.6731 4.46875 13.2187 5.01439 13.2187 5.6875C13.2187 6.3606 12.6731 6.90625 12 6.90625ZM13.2187 8.9375C13.2187 8.26439 12.6731 7.71875 12 7.71875C11.3269 7.71875 10.7812 8.26439 10.7812 8.9375C10.7812 9.6106 11.3269 10.1562 12 10.1562C12.6731 10.1562 13.2187 9.6106 13.2187 8.9375ZM6.71875 -2.84124e-07C7.34316 -3.11418e-07 7.91246 0.235065 8.34375 0.621156C8.77503 0.235065 9.34434 -3.98892e-07 9.96875 -4.26186e-07L14.0312 -6.03764e-07C14.6557 -6.31057e-07 15.225 0.235065 15.6562 0.621156C16.0875 0.235065 16.6568 -7.18532e-07 17.2812 -7.45826e-07L21.3437 -9.23403e-07C22.69 -9.82248e-07 23.7812 1.09129 23.7812 2.4375L23.7812 23.5625C23.7812 24.9087 22.69 26 21.3438 26L17.2812 26C16.6568 26 16.0875 25.7649 15.6562 25.3788C15.225 25.7649 14.6557 26 14.0312 26L9.96875 26C9.34434 26 8.77503 25.7649 8.34375 25.3788C7.91246 25.7649 7.34316 26 6.71875 26L2.65625 26C1.31004 26 0.21875 24.9087 0.21875 23.5625L0.218749 2.4375C0.218749 1.09129 1.31004 -4.77018e-08 2.65625 -1.06547e-07L6.71875 -2.84124e-07ZM6.71875 24.375C7.16674 24.375 7.53125 24.0105 7.53125 23.5625L7.53125 2.4375C7.53125 1.98951 7.16674 1.625 6.71875 1.625L2.65625 1.625C2.20826 1.625 1.84375 1.98951 1.84375 2.4375L1.84375 23.5625C1.84375 24.0105 2.20826 24.375 2.65625 24.375L6.71875 24.375ZM9.15625 2.4375L9.15625 23.5625C9.15625 24.0105 9.52076 24.375 9.96875 24.375L14.0312 24.375C14.4792 24.375 14.8437 24.0105 14.8437 23.5625L14.8437 2.4375C14.8437 1.98951 14.4792 1.625 14.0312 1.625L9.96875 1.625C9.52076 1.625 9.15625 1.98951 9.15625 2.4375ZM17.2812 1.625C16.8333 1.625 16.4687 1.98951 16.4687 2.4375L16.4687 23.5625C16.4687 24.0105 16.8333 24.375 17.2812 24.375L21.3437 24.375C21.7917 24.375 22.1562 24.0105 22.1562 23.5625L22.1562 2.4375C22.1562 1.98951 21.7917 1.625 21.3437 1.625L17.2812 1.625ZM5.90625 5.6875C5.90625 5.01439 5.3606 4.46875 4.6875 4.46875C4.01439 4.46875 3.46875 5.01439 3.46875 5.6875C3.46875 6.36061 4.01439 6.90625 4.6875 6.90625C5.3606 6.90625 5.90625 6.3606 5.90625 5.6875ZM5.90625 8.9375C5.90625 8.26439 5.3606 7.71875 4.6875 7.71875C4.01439 7.71875 3.46875 8.26439 3.46875 8.9375C3.46875 9.61061 4.01439 10.1562 4.6875 10.1562C5.3606 10.1562 5.90625 9.6106 5.90625 8.9375ZM18.0937 5.6875C18.0937 6.3606 18.6394 6.90625 19.3125 6.90625C19.9856 6.90625 20.5312 6.3606 20.5312 5.6875C20.5312 5.01439 19.9856 4.46875 19.3125 4.46875C18.6394 4.46875 18.0937 5.01439 18.0937 5.6875ZM18.0937 8.9375C18.0937 9.6106 18.6394 10.1562 19.3125 10.1562C19.9856 10.1562 20.5312 9.6106 20.5312 8.9375C20.5312 8.26439 19.9856 7.71875 19.3125 7.71875C18.6394 7.71875 18.0937 8.26439 18.0937 8.9375Z" fill="#9C9A96"/>
</svg>
