<svg width="20" height="26" viewBox="0 0 20 26" fill="none" xmlns="http://www.w3.org/2000/svg">
<path d="M19.0361 4.97357L14.7764 0.713934V0.713934C14.3193 0.256813 13.6993 5.07813e-06 13.0529 0H2.6875C1.34129 0 0.25 1.09129 0.25 2.4375V23.5625C0.25 24.9087 1.34129 26 2.6875 26H17.3125C18.6587 26 19.75 24.9087 19.75 23.5625V6.69713V6.69715C19.75 6.05068 19.4932 5.4307 19.0361 4.97357L19.0361 4.97357ZM17.887 6.12264C17.9911 6.22665 18.0648 6.35714 18.1001 6.5H13.25V1.64993C13.3929 1.68518 13.5234 1.75885 13.6274 1.86296L17.887 6.12264ZM17.3125 24.375H2.6875C2.23875 24.375 1.875 24.0113 1.875 23.5625V2.4375C1.875 1.98875 2.23875 1.625 2.6875 1.625H11.625V6.90625C11.625 7.57936 12.1706 8.125 12.8438 8.125H18.125V23.5625C18.125 24.0113 17.7613 24.375 17.3125 24.375ZM15.5622 13.6627L8.71737 20.4527C8.4787 20.6895 8.09337 20.6884 7.85597 20.4504L4.43544 17.02C4.19763 16.7815 4.19819 16.3953 4.43666 16.1575L4.86855 15.7269C5.10707 15.489 5.49321 15.4896 5.73102 15.7281L8.29253 18.2969L14.2736 12.3638C14.5128 12.1266 14.8989 12.1281 15.1362 12.3673L15.5657 12.8003C15.8029 13.0394 15.8014 13.4255 15.5622 13.6627Z" fill="#9C9A96"/>
</svg>
