<svg width="26" height="26" viewBox="0 0 26 26" fill="none" xmlns="http://www.w3.org/2000/svg">
<path d="M13 0.40625C6.04297 0.40625 0.40625 6.04297 0.40625 13C0.40625 19.957 6.04297 25.5938 13 25.5938C19.957 25.5938 25.5938 19.957 25.5938 13C25.5938 6.04297 19.957 0.40625 13 0.40625ZM22.8109 8.125H18.6215C18.1645 5.87031 17.3977 3.95078 16.4277 2.58477C19.2207 3.50898 21.516 5.525 22.8109 8.125ZM17.4688 13C17.4688 14.1629 17.3875 15.2445 17.2504 16.25H8.74961C8.6125 15.2445 8.53125 14.1629 8.53125 13C8.53125 11.8371 8.6125 10.7555 8.74961 9.75H17.2504C17.3875 10.7555 17.4688 11.8371 17.4688 13ZM13 2.03125C14.366 2.03125 16.118 4.2707 16.966 8.125H9.03398C9.88203 4.2707 11.634 2.03125 13 2.03125ZM9.57227 2.58477C8.60742 3.9457 7.83555 5.86523 7.37852 8.125H3.18906C4.48398 5.525 6.7793 3.50898 9.57227 2.58477ZM2.03125 13C2.03125 11.8676 2.20391 10.7758 2.52383 9.75H7.11953C6.9875 10.791 6.90625 11.8727 6.90625 13C6.90625 14.1273 6.98242 15.209 7.11953 16.25H2.52383C2.20391 15.2242 2.03125 14.1324 2.03125 13ZM3.18906 17.875H7.37852C7.83555 20.1297 8.60234 22.0492 9.57227 23.4152C6.7793 22.491 4.48398 20.475 3.18906 17.875ZM13 23.9688C11.634 23.9688 9.88203 21.7293 9.03398 17.875H16.966C16.118 21.7293 14.366 23.9688 13 23.9688ZM16.4277 23.4152C17.3926 22.0543 18.1645 20.1348 18.6215 17.875H22.8109C21.516 20.475 19.2207 22.491 16.4277 23.4152ZM18.8805 16.25C19.0125 15.209 19.0938 14.1273 19.0938 13C19.0938 11.8727 19.0176 10.791 18.8805 9.75H23.4762C23.7961 10.7758 23.9688 11.8676 23.9688 13C23.9688 14.1324 23.7961 15.2242 23.4762 16.25H18.8805Z" fill="#9C9A96"/>
</svg>
